<svg xmlns="http://www.w3.org/2000/svg" width="197.469" height="197.467" viewBox="0 0 197.469 197.467"><path d="M167.307,342.376c2.449.03,4.8.783,7.212,1.015a76.761,76.761,0,0,1,13.394,2.622,72.712,72.712,0,0,1,14.151,6.174,153.513,153.513,0,0,1,21.674,13.239c7.954,6.054,14.8,13.1,19.485,22.035,5.167,9.866,9.728,19.977,12.293,30.888A56.5,56.5,0,0,1,257.071,433c-.106,3.62-.027,7.245-.082,10.869-.116,7.523-.536,15.022-2.38,22.354a96.243,96.243,0,0,1-13.167,29.564,100.431,100.431,0,0,1-29.218,28.837c-4.445,2.923-9.412,4.626-14.429,6.194a195.084,195.084,0,0,1-28.881,6.789,150.244,150.244,0,0,1-18.062,1.7c-.213.007-.5-.143-.637.175h-1.1c-.36-.339-.806-.168-1.2-.151a16.678,16.678,0,0,0-3.914.151h-1.1c-.212-.348-.549-.161-.825-.176a75.247,75.247,0,0,1-37.8-12.161c-1.4-.914-2.678-2.006-4.055-2.953a73.718,73.718,0,0,1-22.039-23.944c-2.238-3.832-4.882-7.41-7.069-11.274a64.087,64.087,0,0,1-6.491-17.523c-1.707-7.464-3.286-14.953-4.536-22.506a33.972,33.972,0,0,1-.21-9.837c1.675-13,4.722-25.657,10.58-37.5a43.585,43.585,0,0,1,4.311-7.77,3.048,3.048,0,0,1-.242,1.423c-.514,1.411-1.448,2.612-2,4-2.258,5.676-4.561,11.331-5.737,17.377A60.366,60.366,0,0,0,65.5,430.052c.664-2.021,1.307-3.975,1.947-5.928a24.539,24.539,0,0,0,1.537-8.843,4.13,4.13,0,0,1,.635-2.258c.5-.869,1.033-1.722,1.6-2.547a68.343,68.343,0,0,0,4.922-7.344,1.452,1.452,0,0,1,.4-.486c.165-.124.4-.25.595-.138.269.16.039.385-.03.558a13.738,13.738,0,0,1-1.529,3.2c-.635.863-.311,2.059-1.12,2.918a5.721,5.721,0,0,0-.739,1.918A99.591,99.591,0,0,0,70.4,421.23a86.343,86.343,0,0,0-2.8,15.4c-.05.736.148,1.683-.492,2.248-1.315,1.159-.833,2.577-.739,3.958a.333.333,0,0,0,.511.312c.887-.386,1.053.212,1.325.838a5.327,5.327,0,0,0,1.989,2.683c.371.8.786,1.576,1.1,2.392a18.69,18.69,0,0,0,2.91,4.9c2.325,2.925,4.648,5.849,5.515,9.68a40.731,40.731,0,0,0,3.024,7.791,116.87,116.87,0,0,0,15.175,23.865c1.959,2.473,3.756,5.093,6.379,6.983a78.425,78.425,0,0,0,9.176,5.589c3.378,1.792,6.956,3.173,10.373,4.863a107.638,107.638,0,0,0,15.68,6.545q8.074,2.512,16.162,4.966a83.792,83.792,0,0,0,12.619,3.109c3.555.5,7.062.788,10.54-.45,3.056-1.09,6.135-2.112,9.211-3.141a102.632,102.632,0,0,0,16.036-6.38c11.2-5.979,19.819-14.682,26.692-25.234,6.757-10.373,10.909-21.832,14.074-33.71,1.989-7.472,3.039-15.121,4.359-22.719.044-.247-.086-.669.277-.677.457-.012.3.438.319.707a86.328,86.328,0,0,1-.449,16.124,90.948,90.948,0,0,1-8.3,28.368c-.994,2.086-2.066,4.136-3.121,6.236.622-.228.714-.289,1.435-1.435,7.724-12.26,12.764-25.466,14.1-39.98a74.206,74.206,0,0,0-1.624-23.471c-1.85-8.1-4.835-15.846-7.724-23.6-4.69-12.579-13.468-21.871-24.516-29.178a3.927,3.927,0,0,0-2.1-.748c1.54,1.438,2.973,2.747,4.376,4.087a34.185,34.185,0,0,1,4.484,4.647,1.6,1.6,0,0,1-1.557-.541c-.608-.593-1.2-1.215-1.855-1.749a100.531,100.531,0,0,0-20.1-12.421c-1.624-.779-3.325-1.408-4.989-2.107l-.129.238c2.779,1.514,5.058,3.736,7.8,5.309,1.072.615,2.229,1.159,2.684,2.458a30.63,30.63,0,0,1-3.187-1.325c-8.44-4.314-17.394-7.235-26.5-9.74-2.98-.818-6.1-1.287-8.724-3.019a11.891,11.891,0,0,0-6.4-1.71c-3.926-.146-7.623.961-11.272,2.249-3.227,1.141-6.394,2.512-9.826,2.933-2.443.3-4.882.58-7.291,1.1a99.092,99.092,0,0,0-10.55,3.1c-.1-.618.344-.842.766-1.1,3.414-2.123,7.024-3.879,10.612-5.678,1.117-.559,1.243-.64,1.608-1.329-17.313,3.753-31.663,12.635-44,25.293-.05-1.189.729-1.651,1.223-2.276a78.937,78.937,0,0,1,14.854-14.734,48.9,48.9,0,0,1,6.533-4.48c1.912-.988,3.946-1.745,5.94-2.569a35.586,35.586,0,0,1,10.755-3.017,86.751,86.751,0,0,0,13.1-2.2c4.684-1.1,9.164-2.935,14.059-3.3,3.629-.27,7.219-.988,10.886-.566a29.446,29.446,0,0,1,9.552,2.547,4.5,4.5,0,0,1,2.352,2.653,1.293,1.293,0,0,1-1.235-.428,10.906,10.906,0,0,0-4.852-2.587,39.139,39.139,0,0,0-12.771-.828,73.165,73.165,0,0,0-9.693,1.641c-2.364.479-4.64,1.231-7,1.834a.8.8,0,0,0,.984.472,35.515,35.515,0,0,1,3.523-.462,81.418,81.418,0,0,1,10.649-.585c6.061.114,11.773,1.942,17.536,3.523,2.09.575,4.161,1.221,6.328,1.86-.077-.863-.974-1.307-.689-2.127,2.48.366,4.257,2.048,6.248,3.415h-1.73c1.73.734,3.259,2.113,5.337,1.5a1.565,1.565,0,0,1,.892.086c4.28,1.47,8.641,2.728,12.665,4.867a3.84,3.84,0,0,0,.418.18c.349.129.776.289.995-.089.18-.312-.133-.63-.383-.838a15.359,15.359,0,0,0-1.455-1.1c-5.3-3.461-10.637-6.849-16.179-9.917-6.7-3.711-13.632-6.664-21.353-7.521-3.056-.338-6.1-.87-9.147-1.376h4.469l.795.044C167.149,342.47,167.223,342.487,167.307,342.376ZM67.142,448.06a24.53,24.53,0,0,0-.106,5.673c.292,4.552.536,9.122,2.11,13.459.64,1.764.457,3.58.64,5.361a22.671,22.671,0,0,0,3.246,9.577A14.981,14.981,0,0,1,74.81,486.9a26.057,26.057,0,0,0,2.676,7.054c1.283,2.392,2.79,4.641,4.265,6.913,3.968,6.106,8.079,12.1,13.506,17.051,3.508,3.205,6.987,6.439,11.265,8.63,2.706,1.386,5.529,2.535,8.154,4.082a3.263,3.263,0,0,0,1.582.4,33.658,33.658,0,0,1,9.108,1.737,74.268,74.268,0,0,0,16.488,2.852,2.434,2.434,0,0,0,2.256-.9,4.362,4.362,0,0,1,3.63-1.618c2.56.057,4.89-.847,7.279-1.527.324-.092.628-.264.667-.665a.468.468,0,0,0-.235-.464.737.737,0,0,0-.927.1,5.155,5.155,0,0,1-4.9.927,33.666,33.666,0,0,0-10.108-1.013,19.44,19.44,0,0,1-7.748-1.456,20.305,20.305,0,0,0-5.092-1.374,25.713,25.713,0,0,1-10.819-3.575c-2.6-1.453-4.978-3.293-7.864-4.213a13.145,13.145,0,0,1-2.918-1.492c-1.6-1.006-2.94-2.38-4.48-3.43a42.836,42.836,0,0,1-9.443-9.318c-3.1-3.961-5.613-8.324-8.551-12.4a70.336,70.336,0,0,1-5.344-8.811,3.315,3.315,0,0,1-.279-3.133c.171-.356.329-.793.813-.726a.88.88,0,0,1,.833.924,2.393,2.393,0,0,0,.4,1.292,16.829,16.829,0,0,1,1.428,3.151,4.594,4.594,0,0,0,1.262,1.881c-1.729-5.293-3-10.538-5.391-15.537a4.509,4.509,0,0,0,.171,2.837c.455,1.451.932,2.894,1.4,4.343.086.265.161.556-.084.764a.721.721,0,0,1-.853,0,2.494,2.494,0,0,1-1.525-1.7,5.389,5.389,0,0,0-1-2.021,8.764,8.764,0,0,1-2.049-5.45,39.733,39.733,0,0,0-1.006-9.772,48.761,48.761,0,0,1-1.309-9.557c0-.2.077-.484-.155-.575-.323-.124-.365.223-.5.4-.161.217-.287.474-.645.514A14.323,14.323,0,0,0,67.142,448.06Zm29.218,59.2a24.421,24.421,0,0,0,2.973,2.9,77.912,77.912,0,0,0,26.845,13.809,82.007,82.007,0,0,0,13.054,2.495,39.756,39.756,0,0,0,10.185.2c.963-.118,1.917-.318,2.864-.526.788-.175.8-.929.785-1.472-.015-.487-.627-.321-.993-.328-2.644-.054-5.287,0-7.934-.148a91.341,91.341,0,0,1-16.718-2.582c-10.64-2.61-20.518-6.819-29.255-13.526A3.809,3.809,0,0,0,96.36,507.26Zm105.467,14.156c-2.463.944-4.894,2-7.4,2.863a68.32,68.32,0,0,1-7.783,2.184c-2.569.554-5.162.969-7.764,1.3A41.153,41.153,0,0,0,201.827,521.416Z" transform="translate(-59.624 -342.012)" fill="#271b1c"/><path d="M109.853,459.768a16.678,16.678,0,0,1,3.914-.151c.393-.017.84-.188,1.2.151Z" transform="translate(-25.473 -262.301)" fill="#c6342b"/><path d="M67.826,446.792a5.32,5.32,0,0,1-1.991-2.683c-.272-.627-.438-1.225-1.325-.838a.333.333,0,0,1-.511-.312c-.094-1.381-.576-2.8.739-3.958.64-.564.442-1.512.492-2.248a86.344,86.344,0,0,1,2.8-15.4,99.6,99.6,0,0,1,3.316-10.128,5.721,5.721,0,0,1,.739-1.918c.81-.858.485-2.055,1.12-2.918a13.738,13.738,0,0,0,1.529-3.2c.069-.173.3-.4.03-.558-.19-.113-.43.013-.595.138a1.452,1.452,0,0,0-.4.486,68.343,68.343,0,0,1-4.922,7.344c-.569.825-1.1,1.678-1.6,2.547a4.13,4.13,0,0,0-.635,2.258,24.539,24.539,0,0,1-1.537,8.843c-.64,1.954-1.283,3.907-1.947,5.928a60.366,60.366,0,0,1,1.305-13.417c1.176-6.046,3.479-11.7,5.737-17.377.549-1.384,1.483-2.585,2-4a3.047,3.047,0,0,0,.242-1.423l-.012.008.086-.2a24.2,24.2,0,0,1,2.133-3.81A112.284,112.284,0,0,1,100.992,361.3a99.662,99.662,0,0,1,14.6-9.113,1.088,1.088,0,0,1,.262-.062,3.974,3.974,0,0,0,2.1-.407,95.1,95.1,0,0,1,16.952-5.972,1.5,1.5,0,0,0,1.144-.795,21.612,21.612,0,0,1,6.862-1.569c4.252-.44,8.482-1.11,12.766-1.2,2.607-.055,5.216-.086,7.822.108a1.527,1.527,0,0,1,.408.158h-4.469c3.046.506,6.091,1.038,9.147,1.376,7.721.857,14.652,3.81,21.353,7.521,5.542,3.068,10.881,6.456,16.179,9.917a15.353,15.353,0,0,1,1.455,1.1c.25.208.563.526.383.838-.218.378-.645.218-.995.089a3.839,3.839,0,0,1-.418-.18c-4.023-2.139-8.384-3.4-12.665-4.867a1.565,1.565,0,0,0-.892-.086c-2.078.615-3.607-.764-5.337-1.5h1.73c-1.991-1.367-3.768-3.049-6.248-3.415l-2.782-2.313a4.5,4.5,0,0,0-2.352-2.653,29.446,29.446,0,0,0-9.552-2.547c-3.667-.422-7.257.3-10.886.566-4.9.365-9.376,2.2-14.059,3.3a86.751,86.751,0,0,1-13.1,2.2,35.586,35.586,0,0,0-10.755,3.017c-1.994.823-4.028,1.581-5.94,2.569a48.9,48.9,0,0,0-6.533,4.48A78.937,78.937,0,0,0,92.327,376.6c-.494.625-1.273,1.087-1.223,2.276,12.334-12.658,26.683-21.54,44-25.293-.365.689-.491.769-1.608,1.329-3.588,1.8-7.2,3.555-10.612,5.678-.422.262-.87.486-.766,1.1a36.237,36.237,0,0,0-6.689,3.434,8.555,8.555,0,0,1-2.915,1.426,2.194,2.194,0,0,0-1.467.312,101.141,101.141,0,0,0-13.967,10.746,1.612,1.612,0,0,0-.7,1.483,12.7,12.7,0,0,1-2.627,2.631,24.291,24.291,0,0,0-4.556,4.689,24.577,24.577,0,0,1-2.98,3.553c-.118.032-.262.024-.287.193l.025-.02c-.24-.03-.4.128-.561.259a19.963,19.963,0,0,0-2.721,3.061,50.466,50.466,0,0,0-5.485,8.277c-1.54,2.871-3.711,5.433-4.4,8.734a3.212,3.212,0,0,1-.245.586c-.6,1.4-1.25,2.774-1.8,4.188a41.256,41.256,0,0,0-2.545,8.764c-.24,1.608-.306,3.246-.593,4.828a32.178,32.178,0,0,0-.294,9.1c.082.815.319.146.5.071-.013.576-.037,1.151-.039,1.725C67.755,442.085,67.345,444.442,67.826,446.792Z" transform="translate(-57.256 -342.136)" fill="#e31523"/><path d="M114.709,343.809a1.5,1.5,0,0,1-1.144.795,95.1,95.1,0,0,0-16.952,5.972,3.974,3.974,0,0,1-2.1.407,56.649,56.649,0,0,1,8.144-3.765A69.32,69.32,0,0,1,113.9,343.89,7.254,7.254,0,0,1,114.709,343.809Z" transform="translate(-35.906 -340.999)" fill="#271b1c"/><path d="M123.817,342.358c-.084.111-.158.094-.228-.013Z" transform="translate(-16.134 -341.994)" fill="#c6342b"/><path d="M68.723,372.873l-.086.2Z" transform="translate(-53.496 -321.238)" fill="#271b1c"/><path d="M84.4,385.851a24.58,24.58,0,0,0,2.98-3.553,24.29,24.29,0,0,1,4.556-4.689,12.7,12.7,0,0,0,2.627-2.631c.17-.124.346-.24.511-.373a169.573,169.573,0,0,1,13.748-10.467,7.137,7.137,0,0,0,1.878-1.7,8.556,8.556,0,0,0,2.915-1.426,36.237,36.237,0,0,1,6.689-3.434,99.084,99.084,0,0,1,10.55-3.1c2.409-.516,4.848-.8,7.291-1.1,3.432-.422,6.6-1.792,9.826-2.933,3.649-1.288,7.346-2.4,11.272-2.249a11.891,11.891,0,0,1,6.4,1.71c2.619,1.732,5.744,2.2,8.724,3.019,9.1,2.5,18.055,5.426,26.5,9.74a30.635,30.635,0,0,0,3.187,1.325,11.8,11.8,0,0,1,2.12,1.559,9.125,9.125,0,0,0,2.367,1.678c.26.254.512.514.779.759,3.277,3,6.585,5.96,9.6,9.229,6.224,6.748,11.286,14.207,14.282,22.967a50.793,50.793,0,0,1,2.731,21.805,45.646,45.646,0,0,0,.286,12.347c.58,3.442,1.194,6.888,1.446,10.38.094,1.3.222,2.592.334,3.887l.277-.005c3.565-14.034,2.758-28.224,1.347-42.446a2.182,2.182,0,0,1,.259.64c.477,2.476.84,4.971,1.162,7.47a7.589,7.589,0,0,0,.527,2.39,1.127,1.127,0,0,0,1.245.717,1.1,1.1,0,0,0,.924-1.186,2.884,2.884,0,0,0-.106-.81c-.312-1.235-.709-2.451-.954-3.7-1.462-7.4-3.335-14.671-7.005-21.35-1.02-1.858-1.923-3.795-3.575-5.219a13.331,13.331,0,0,1-1.749-2.2c-1.971-3.97-5.238-6.9-8.153-10.1a34.183,34.183,0,0,0-4.484-4.647c-1.4-1.341-2.836-2.649-4.376-4.087a3.927,3.927,0,0,1,2.1.748c11.049,7.307,19.826,16.6,24.516,29.178,2.889,7.751,5.875,15.5,7.724,23.6a74.205,74.205,0,0,1,1.624,23.471c-1.337,14.514-6.377,27.72-14.1,39.98-.721,1.146-.813,1.206-1.435,1.435,1.055-2.1,2.127-4.149,3.121-6.236a90.948,90.948,0,0,0,8.3-28.368,86.327,86.327,0,0,0,.449-16.124c-.017-.269.138-.719-.319-.707-.363.008-.233.43-.277.677-1.32,7.6-2.37,15.247-4.359,22.719-3.165,11.879-7.318,23.337-14.074,33.711-6.872,10.551-15.49,19.255-26.692,25.234a102.63,102.63,0,0,1-16.036,6.38c-3.076,1.03-6.155,2.051-9.211,3.141-3.477,1.238-6.985.946-10.54.45a83.783,83.783,0,0,1-12.619-3.11q-8.094-2.439-16.162-4.966a107.632,107.632,0,0,1-15.68-6.545c-3.417-1.69-7-3.071-10.373-4.863a78.426,78.426,0,0,1-9.176-5.589c-2.622-1.89-4.42-4.511-6.379-6.983a116.87,116.87,0,0,1-15.174-23.865,40.73,40.73,0,0,1-3.024-7.791c-.867-3.83-3.19-6.755-5.515-9.68a18.69,18.69,0,0,1-2.91-4.9c-.316-.816-.731-1.6-1.1-2.392-.479-2.35-.069-4.707-.062-7.061,0-.574.025-1.149.039-1.725-.032-.077-.1-.163-.092-.233.591-3.709,1.021-7.444,1.846-11.114a96.671,96.671,0,0,1,15.39-34.774,4.03,4.03,0,0,0,1-1.747l-.025.02C84.321,386.155,84.321,385.947,84.4,385.851Zm77.282,69.187A32.093,32.093,0,0,0,163,458.716a16.6,16.6,0,0,0,1.969,3.377c2.649,3.429,7.2,5.342,11.936,3.084,2.137-1.02,4.1-2.35,6.276-3.3.39-.171.541-.191.758.2a13.448,13.448,0,0,0,1.186,1.833c2.337,2.962,5.33,4.542,9.154,3.884,4.035-.694,7.4-2.869,10.511-5.382,2.117-1.709,3.111-4.223,4.139-6.669,4.438-10.555,6.61-21.709,8.66-32.892a5.644,5.644,0,0,0-.857-4.017,5.212,5.212,0,0,0-6.77-1.648c-2.058,1.171-4.141,2.3-6.211,3.445-.277.155-.521.437-.884.19a3.52,3.52,0,0,0,.156-.336c1.895-5.676,3.81-11.348,5.675-17.034a30.472,30.472,0,0,0,1.828-12.352,13.807,13.807,0,0,0-3.111-8.025c-2.614-3.041-6.308-4.04-9.57-2.5a47.51,47.51,0,0,0-4.26,2.27,24.836,24.836,0,0,0-4.314,3.319c-.113-.2-.18-.3-.232-.41-1.737-3.647-6.961-6.558-11.576-3.65a23.074,23.074,0,0,1-4.193,2.181,9.954,9.954,0,0,0-5.759,5.856,80.687,80.687,0,0,0-5.391,18.595c-.176,1.038-.3,1.96-1.663,1.94a1.309,1.309,0,0,0-.67.262c-1.85,1.218-4,1.567-6.12,2.192.052-.242.091-.449.141-.65,1.421-5.707,2.648-11.44,2.288-17.379a18.648,18.648,0,0,0-2.038-8.426,7.31,7.31,0,0,0-10.207-2.915,44.462,44.462,0,0,1-4.358,2.263c-3.823,1.581-6.217,4.542-8.127,8.038a45.659,45.659,0,0,0-4.087,11.269c-.18.736-.338.761-.968.438a9.911,9.911,0,0,0-9.135-.19,66.094,66.094,0,0,0-7.934,4.465,14.139,14.139,0,0,0-4.395,4.428c-.739,1.188-1.456,2.385-2.088,3.634a78.623,78.623,0,0,0-5.433,15.621,77.708,77.708,0,0,0-2.99,20.513c.017,2.344.339,4.667.529,7,.4,4.984,1.712,9.634,4.9,13.592a13.676,13.676,0,0,0,8.9,5.391,17.5,17.5,0,0,0,9.127-1.164c4.042-1.665,7.946-3.538,10.718-7.131a39.492,39.492,0,0,0,6.353-11.618c.168-.5.3-.67.863-.492a4.843,4.843,0,0,0,3.143-.047.984.984,0,0,1,1.287.361c2.678,2.989,5.979,4.134,9.869,2.947C154.709,461.649,158.9,459.427,161.677,455.037ZM216.9,493.152a2.618,2.618,0,0,0-1.147.062c-1.319.269-2.49.947-3.771,1.314a41.68,41.68,0,0,0-10.8,4.939c-4.282,2.7-8.035,6.107-12.083,9.119a59.489,59.489,0,0,1-8.868,5.891c-.279.139-.475.307-.363.628.139.393.442.455.815.336.952-.309,1.915-.583,2.859-.915a87.459,87.459,0,0,0,29-16.949A33.786,33.786,0,0,0,216.9,493.152ZM167.953,486.7c0,1.337-.045,2.678.01,4.013a2.384,2.384,0,0,0,2.723,2.587c1.761,0,2.69-.806,2.73-2.577.06-2.644.039-5.292,0-7.936a2.4,2.4,0,0,0-1.216-2.3,2.768,2.768,0,0,0-4.245,2.469C167.928,484.2,167.952,485.448,167.953,486.7Zm12.057,0c0-1.278.02-2.555-.007-3.832a2.512,2.512,0,0,0-1.149-2.337,2.752,2.752,0,0,0-4.3,2.258c-.089,2.642-.052,5.29-.008,7.934a2.393,2.393,0,0,0,1.226,2.291A2.76,2.76,0,0,0,180,490.527C180.03,489.25,180.01,487.973,180.01,486.7Zm1.257,0v3.556c0,3.2.086,3.272,3.313,2.844a2.074,2.074,0,0,0,2.026-1.986,63.5,63.5,0,0,0-.008-8.831,1.942,1.942,0,0,0-1.836-1.834,25.538,25.538,0,0,0-2.728-.091c-.585-.034-.795.158-.779.778C181.293,482.982,181.267,484.839,181.267,486.693Zm-44.793,3.572a2.936,2.936,0,0,1,.877,1.515,1.8,1.8,0,0,0,2.248,1.362c.706-.072.66-.277.4-.761-.386-.722-.714-1.478-1.129-2.184-.3-.512-.356-.87.168-1.3a1.892,1.892,0,0,0,.6-1.482c.018-1.582.061-3.168-.015-4.747a2.112,2.112,0,0,0-2.234-2.263c-.754-.072-1.52-.015-2.278-.059-.59-.034-.788.171-.783.785q.04,5.614,0,11.23c0,.628.227.818.8.753a3.413,3.413,0,0,1,.729,0c.489.054.64-.166.623-.632C136.455,491.79,136.474,491.091,136.474,490.265Zm-9.239-6.219c0-.517.022-1.036,0-1.552-.072-1.46-1-2.273-2.611-2.317-1.643-.045-2.651.763-2.742,2.261-.052.879,0,1.764-.024,2.646a4.038,4.038,0,0,0,1.8,3.582,4.325,4.325,0,0,1,1.285,1.275.877.877,0,0,1,.076,1.025.537.537,0,0,1-.645.2c-.438-.151-.412-.534-.428-.909-.013-.269.158-.608-.287-.753-1.186-.386-1.831.059-1.794,1.265.005.121.012.242.024.363.155,1.509,1.1,2.211,2.913,2.162a2.294,2.294,0,0,0,2.444-2.28,3.792,3.792,0,0,0-1.816-3.719,2.752,2.752,0,0,1-1.462-2.08c-.055-.727-.012-1.46-.013-2.191,0-.418.136-.726.62-.709s.578.359.578.761a18.57,18.57,0,0,1-.013,2.006c-.094.874.2,1.124,1.089,1.121.85,0,1.139-.245,1.023-1.067A8.188,8.188,0,0,1,127.234,484.046Zm19.835,2.664c0,1.917.015,3.834-.01,5.75-.008.516.15.68.667.665,1.186-.035,2.375-.054,3.558,0,.964.045.7-.617.711-1.105s.208-1.1-.689-1.008c-.541.055-1.1-.008-1.641.015-.407.018-.484-.161-.521-.536-.092-.929.566-.628,1.016-.667.67-.055,1.517.351,1.456-1-.044-.944-.291-1.24-1.174-1.1-.207.034-.428-.018-.637.008-.531.07-.682-.156-.659-.667.039-.82-.012-1.645.017-2.464.024-.687-.309-1.6.155-2,.393-.336,1.282-.165,1.939-.1.863.086.774-.464.739-.978s.3-1.231-.732-1.186c-1.154.049-2.313.05-3.466-.005-.653-.03-.748.242-.739.8C147.086,483,147.069,484.854,147.069,486.71Zm-6.029.037c0,1.885.018,3.771-.01,5.656-.008.541.114.751.7.726,1.184-.049,2.37-.027,3.556-.007.43.007.719-.069.689-.583a5.906,5.906,0,0,1,0-.912c.047-.5-.18-.633-.64-.608-.576.029-1.156-.005-1.732.01-.346.01-.445-.123-.492-.472-.116-.858.45-.685.952-.746.61-.072,1.569.5,1.514-.921-.035-.936-.244-1.327-1.194-1.159-.176.032-.366-.017-.546.008-.546.077-.753-.108-.726-.694.05-1.031.015-2.068.015-3.1,0-1.45,0-1.45,1.485-1.45,1.43,0,1.409,0,1.371-1.44-.013-.5-.153-.716-.68-.7-1.186.025-2.372.032-3.556,0-.568-.017-.727.193-.719.741C141.057,482.976,141.04,484.861,141.04,486.747Zm21.192-.015c0,1.824.042,3.65-.02,5.471-.029.79.237.921.966.942.9.029,1.327-.183,1.149-1.146a4.04,4.04,0,0,1-.007-.727c0-1.445,0-1.507,1.408-1.424.874.05,1.01-.266,1.038-1.058.032-.9-.245-1.206-1.109-1.06-.237.04-.489-.017-.727.012-.48.055-.637-.128-.62-.615.035-1.033.01-2.066.01-3.1,0-1.53,0-1.53,1.5-1.53,1.423,0,1.4,0,1.361-1.448-.013-.506-.168-.707-.687-.7-1.186.025-2.372.035-3.556-.005-.571-.018-.721.18-.712.731C162.25,482.961,162.232,484.847,162.232,486.732Zm-32.518,1.07c0,1.462.069,2.928-.025,4.383-.059.909.336.978,1.05.944.632-.029,1.119.074,1.094-.905-.081-2.95,0-5.9-.049-8.858-.01-.726.193-.991.9-.872.563.1.87-.087.769-.722a2.186,2.186,0,0,1,0-.637c.086-.595-.139-.806-.749-.788-1.246.04-2.5.055-3.743,0-.736-.035-.979.207-.9.922.069.608-.247,1.446.909,1.233.6-.111.776.138.759.739C129.685,484.756,129.714,486.28,129.714,487.8Zm26.6.086c0-1.52.039-3.041-.017-4.559-.025-.687.165-.968.85-.831.727.144.912-.213.815-.857a1.59,1.59,0,0,1,0-.455c.082-.61-.118-.868-.788-.84-1.243.05-2.495.064-3.736-.005-.786-.042-.927.294-.863.954.057.586-.24,1.389.865,1.2.635-.109.811.134.8.78-.039,2.827-.025,5.654-.013,8.482.007,1.514-.249,1.314,1.349,1.372.623.023.763-.193.748-.773C156.295,490.868,156.318,489.378,156.318,487.888Z" transform="translate(-55.441 -338.023)" fill="#fafafa"/><path d="M64.187,405.264a14.323,14.323,0,0,1,1.628,3.96c.358-.04.484-.3.645-.514.133-.176.175-.524.5-.4.232.091.153.371.155.575a48.76,48.76,0,0,0,1.309,9.557,39.733,39.733,0,0,1,1.006,9.772,8.764,8.764,0,0,0,2.049,5.45,5.389,5.389,0,0,1,1,2.021,2.494,2.494,0,0,0,1.525,1.7.721.721,0,0,0,.853,0c.245-.208.17-.5.084-.764-.465-1.448-.942-2.891-1.4-4.343a4.509,4.509,0,0,1-.171-2.837c2.394,5,3.662,10.244,5.391,15.537a4.594,4.594,0,0,1-1.262-1.882,16.83,16.83,0,0,0-1.428-3.151,2.393,2.393,0,0,1-.4-1.292.88.88,0,0,0-.833-.924c-.484-.067-.642.37-.813.726a3.315,3.315,0,0,0,.279,3.133,70.335,70.335,0,0,0,5.344,8.811c2.938,4.072,5.45,8.435,8.551,12.4a42.835,42.835,0,0,0,9.443,9.318c1.54,1.05,2.878,2.424,4.48,3.43a13.145,13.145,0,0,0,2.918,1.492c2.886.921,5.268,2.76,7.864,4.213a25.712,25.712,0,0,0,10.819,3.575,20.3,20.3,0,0,1,5.092,1.374,19.44,19.44,0,0,0,7.748,1.456,33.664,33.664,0,0,1,10.108,1.013,5.155,5.155,0,0,0,4.9-.927.737.737,0,0,1,.927-.1.468.468,0,0,1,.235.464c-.039.4-.343.573-.667.665-2.389.68-4.719,1.584-7.279,1.527a4.362,4.362,0,0,0-3.63,1.618,2.434,2.434,0,0,1-2.256.9,74.265,74.265,0,0,1-16.488-2.852,33.661,33.661,0,0,0-9.108-1.737,3.263,3.263,0,0,1-1.582-.4c-2.626-1.547-5.448-2.7-8.154-4.082-4.279-2.191-7.758-5.424-11.265-8.63-5.428-4.956-9.538-10.945-13.506-17.051-1.475-2.271-2.982-4.521-4.265-6.913a26.057,26.057,0,0,1-2.676-7.054,14.981,14.981,0,0,0-1.779-4.766,22.671,22.671,0,0,1-3.246-9.577c-.183-1.781,0-3.6-.64-5.361-1.574-4.337-1.818-8.907-2.11-13.459A24.531,24.531,0,0,1,64.187,405.264Z" transform="translate(-56.67 -299.216)" fill="#e31523"/><path d="M81.492,440.5a3.81,3.81,0,0,1,1.806.823c8.737,6.708,18.615,10.916,29.255,13.527a91.341,91.341,0,0,0,16.718,2.582c2.648.149,5.29.094,7.934.148.366.007.978-.16.993.328.017.543,0,1.3-.785,1.472-.947.208-1.9.408-2.864.526a39.756,39.756,0,0,1-10.185-.2,82.011,82.011,0,0,1-13.054-2.495A77.913,77.913,0,0,1,84.465,443.4,24.425,24.425,0,0,1,81.492,440.5Z" transform="translate(-44.756 -275.256)" fill="#e31523"/><path d="M147.292,348.988l2.782,2.313c-.286.82.611,1.263.689,2.127-2.167-.638-4.238-1.285-6.328-1.86-5.764-1.581-11.475-3.408-17.536-3.523a81.417,81.417,0,0,0-10.649.585,35.514,35.514,0,0,0-3.523.462.8.8,0,0,1-.984-.472c2.36-.6,4.637-1.356,7-1.834a73.165,73.165,0,0,1,9.693-1.641,39.139,39.139,0,0,1,12.771.828,10.906,10.906,0,0,1,4.852,2.587A1.293,1.293,0,0,0,147.292,348.988Z" transform="translate(-24.189 -340.199)" fill="#fafafa"/><path d="M170.477,369.649c2.915,3.209,6.182,6.135,8.153,10.1a13.331,13.331,0,0,0,1.749,2.2,2.335,2.335,0,0,0,.5,2.209,2.365,2.365,0,0,1,.534,1.707c-.623-.747-1.183-1.31-1.616-1.957a47.613,47.613,0,0,0-7.958-9.34c-2.594-2.3-5.04-4.771-8.045-6.553a16.494,16.494,0,0,1-3.855-2.881,3.123,3.123,0,0,0-3.123-1.065,9.125,9.125,0,0,1-2.367-1.678,11.8,11.8,0,0,0-2.12-1.559c-.455-1.3-1.613-1.843-2.684-2.458-2.742-1.572-5.021-3.795-7.8-5.309l.129-.239c1.665.7,3.365,1.327,4.989,2.107a100.528,100.528,0,0,1,20.1,12.421c.657.534,1.247,1.156,1.855,1.749A1.6,1.6,0,0,0,170.477,369.649Z" transform="translate(-3.722 -334.865)" fill="#e31523"/><path d="M153.561,448.931a41.153,41.153,0,0,1-22.946,6.35c2.6-.334,5.2-.749,7.764-1.3a68.319,68.319,0,0,0,7.783-2.184C148.667,450.932,151.1,449.875,153.561,448.931Z" transform="translate(-11.357 -269.527)" fill="#edebeb"/><path d="M84.328,370.712a4.03,4.03,0,0,1-1,1.747,96.671,96.671,0,0,0-15.39,34.774c-.825,3.671-1.255,7.4-1.846,11.114-.01.07.06.156.092.233-.18.076-.417.744-.5-.071a32.178,32.178,0,0,1,.294-9.1c.287-1.582.353-3.22.593-4.828a41.256,41.256,0,0,1,2.545-8.764c.548-1.414,1.194-2.792,1.8-4.188a3.212,3.212,0,0,0,.245-.586c.694-3.3,2.864-5.863,4.4-8.734a50.466,50.466,0,0,1,5.485-8.277,19.963,19.963,0,0,1,2.721-3.061C83.931,370.839,84.088,370.681,84.328,370.712Z" transform="translate(-55.635 -322.71)" fill="#271b1c"/><path d="M99.055,356.674a7.138,7.138,0,0,1-1.878,1.7,169.567,169.567,0,0,0-13.748,10.467c-.165.133-.341.249-.511.373a1.612,1.612,0,0,1,.7-1.483,101.134,101.134,0,0,1,13.967-10.746A2.194,2.194,0,0,1,99.055,356.674Z" transform="translate(-43.8 -332.26)" fill="#271b1c"/><path d="M76.976,370.607c-.074.1-.074.3-.287.193C76.714,370.631,76.859,370.639,76.976,370.607Z" transform="translate(-48.022 -322.779)" fill="#271b1c"/><path d="M150.119,442.218c-2.782,4.39-6.968,6.612-11.645,8.04-3.891,1.188-7.192.042-9.869-2.947a.984.984,0,0,0-1.287-.361,4.843,4.843,0,0,1-3.143.047c-.559-.178-.7-.01-.863.492a39.491,39.491,0,0,1-6.353,11.618c-2.772,3.593-6.676,5.466-10.718,7.131a17.5,17.5,0,0,1-9.127,1.164,13.676,13.676,0,0,1-8.9-5.391c-3.19-3.958-4.5-8.608-4.9-13.592-.19-2.333-.512-4.657-.529-7a77.709,77.709,0,0,1,2.99-20.513A78.624,78.624,0,0,1,91.2,405.286c.632-1.248,1.349-2.446,2.088-3.634a14.139,14.139,0,0,1,4.395-4.428,66.09,66.09,0,0,1,7.934-4.465,9.911,9.911,0,0,1,9.135.19c.63.322.788.3.968-.438a45.658,45.658,0,0,1,4.087-11.269c1.91-3.5,4.3-6.458,8.127-8.038a44.454,44.454,0,0,0,4.358-2.263,7.31,7.31,0,0,1,10.207,2.915,18.649,18.649,0,0,1,2.038,8.426c.359,5.938-.867,11.672-2.288,17.379-.05.2-.089.408-.141.65,2.115-.625,4.27-.974,6.12-2.192a1.31,1.31,0,0,1,.67-.262c1.359.02,1.487-.9,1.663-1.94a80.688,80.688,0,0,1,5.391-18.595,9.954,9.954,0,0,1,5.759-5.856,23.072,23.072,0,0,0,4.193-2.181c4.615-2.908,9.839,0,11.576,3.65.052.109.119.212.232.41a24.835,24.835,0,0,1,4.314-3.319,47.5,47.5,0,0,1,4.26-2.27c3.262-1.539,6.956-.539,9.57,2.5a13.807,13.807,0,0,1,3.111,8.025,30.472,30.472,0,0,1-1.828,12.352c-1.865,5.686-3.78,11.358-5.675,17.034a3.524,3.524,0,0,1-.156.336c.363.247.606-.035.884-.19,2.07-1.149,4.153-2.275,6.211-3.445a5.212,5.212,0,0,1,6.77,1.648,5.644,5.644,0,0,1,.857,4.017c-2.049,11.183-4.222,22.338-8.66,32.892-1.028,2.446-2.023,4.961-4.139,6.669-3.115,2.513-6.476,4.689-10.511,5.382-3.823.659-6.817-.922-9.154-3.884a13.447,13.447,0,0,1-1.186-1.833c-.217-.391-.368-.371-.758-.2-2.172.948-4.139,2.278-6.276,3.3-4.737,2.258-9.286.344-11.936-3.084a16.593,16.593,0,0,1-1.969-3.377A32.093,32.093,0,0,1,150.119,442.218Zm27.623-6.32c.161.853.272,1.509.41,2.159a20.749,20.749,0,0,0,3.286,8.322c1.661,2.243,3.849,3.543,6.738,3.177,2.3-.292,3.795-1.794,4.972-3.652a37.047,37.047,0,0,0,3.084-6.788,135.065,135.065,0,0,0,5.8-21.333c.544-2.678,1.055-5.364,1.514-8.058a3.063,3.063,0,0,0-.927-2.921c-1.646-1.485-3.845-.635-4.358,1.675-1.566,7.054-2.947,14.151-4.941,21.106a74.769,74.769,0,0,1-4.1,11.183c-.146.313-.292.825-.66.778-.353-.045-.348-.561-.42-.905a98.281,98.281,0,0,1-2.019-14.343,44.477,44.477,0,0,1,2.372-17.58c2.217-6.269,4.252-12.6,6.313-18.927,1.28-3.926,2.172-7.919,1.587-12.1a10.228,10.228,0,0,0-3.647-7.015,5.288,5.288,0,0,0-7.465.576,10.7,10.7,0,0,0-2.2,3.951,117.459,117.459,0,0,0-5.863,32.36,113.78,113.78,0,0,1-1.633,15.774,39.6,39.6,0,0,1-5.655,14.887c-.365.546-.7,1.517-1.255,1.425-.677-.113-.768-1.124-.971-1.8a39.857,39.857,0,0,1-1.32-8.908A35.792,35.792,0,0,1,168.63,413.2,145.14,145.14,0,0,0,175.3,390.5a44.9,44.9,0,0,0,1.173-11.4,11.588,11.588,0,0,0-1.4-5.416c-1.957-3.4-7.205-5.085-10.091-.087a17.676,17.676,0,0,0-.922,1.878,87.046,87.046,0,0,0-6.179,25.489A185.023,185.023,0,0,0,157,421.92a5.231,5.231,0,0,1-.457,2.122,22.347,22.347,0,0,1-2.881,5.05c-.116.148-.166.423-.472.324,0-.181-.007-.361,0-.541a52.745,52.745,0,0,1,1.591-9.33c.422-1.856-.309-2.958-2.15-3.459a4.538,4.538,0,0,1-1.485-.344,9,9,0,0,0,2.525-4.91,14.129,14.129,0,0,1,1.638-4.595,3.483,3.483,0,0,0-.24-4.186,5.785,5.785,0,0,0-3.172-2.021,3.815,3.815,0,0,0-4.951,3.237,4.986,4.986,0,0,0,0,1.907,11.221,11.221,0,0,1-.413,6.1,4,4,0,0,0,1.646,4.823c-2.244.971-2.96,2.859-3.059,5.09a24.964,24.964,0,0,0-.035,3.832,15.979,15.979,0,0,1-1.018,6.773,9.756,9.756,0,0,1-1.016,2.547c0-1.685.032-3.172-.007-4.657a36.925,36.925,0,0,1,1.164-10.205,9.745,9.745,0,0,0,.284-3.795,5.025,5.025,0,0,0-3.531-4.45,4.661,4.661,0,0,0-5.238,1.611,12.385,12.385,0,0,0-1.436,2.1c-1.418,2.513-2.684,5.1-3.859,7.738-.375.84-.756,1.677-1.238,2.747a11.566,11.566,0,0,1,1.747-6.563,124.223,124.223,0,0,0,6.416-12.359c1.935-4.154,2.864-8.63,3.8-13.091a35.049,35.049,0,0,0-.123-16.623,5.567,5.567,0,0,0-4.563-4.29,5.917,5.917,0,0,0-5.014,1.92,25.616,25.616,0,0,0-5.72,9.849,100.267,100.267,0,0,0-3.241,12.89,113.186,113.186,0,0,0-2.8,27.8c.072,2.1.244,4.188.354,6.281.012.223.217.608-.265.6-1.719-.024-2.261,1.146-2.606,2.53a50.678,50.678,0,0,1-6.159,14.235,14.86,14.86,0,0,1-4.858,5.115c-1.52.926-2.7.608-3.59-.942a7.424,7.424,0,0,1-.627-1.509,30.776,30.776,0,0,1-1.011-9.394,98.426,98.426,0,0,1,1.539-14.681,76.384,76.384,0,0,1,4.035-16.236,43.321,43.321,0,0,1,3.842-8.038c.24-.361.507-.858,1.047-.737.6.134.694.7.778,1.221a3.671,3.671,0,0,1,.022.638,22.748,22.748,0,0,1-1.572,7.637,15.608,15.608,0,0,0-.921,2.952,2.558,2.558,0,0,0,.768,2.661,2.494,2.494,0,0,0,2.839.077,12.285,12.285,0,0,0,5.792-5.969c2.518-5.337.186-11.561-3.237-14.716-4.075-3.758-9.223-3.383-12.839.845a29.1,29.1,0,0,0-3.971,6.311,78.965,78.965,0,0,0-4.894,14.368,74.878,74.878,0,0,0-2.935,20.423c.044,2.589.423,5.149.66,7.721a22.609,22.609,0,0,0,2.039,7.524c2.629,5.661,7,8.4,12.875,8.1a9.978,9.978,0,0,0,7.822-3.866,41.1,41.1,0,0,0,5.607-9.349,31.728,31.728,0,0,0,1.732-5.663,13.7,13.7,0,0,0,1.277,1.166,3.609,3.609,0,0,0,5.712-1.987c.879-2.553,1.623-5.152,2.574-7.681a60.4,60.4,0,0,1,2.538-6.085c-.049,1.559-.218,3.1-.284,4.638-.131,3.188.284,6.258,2.231,8.932,2.663,3.655,7.371,4.17,10.373,1.141a9.9,9.9,0,0,0,2.14-3.672c.491-1.329.993-2.653,1.456-3.892,2.713.857,5.314,1.747,7.736-.554.242,1.058.433,2.038.7,3a16.945,16.945,0,0,0,3.274,6.943,7.09,7.09,0,0,0,6.7,2.686,6.985,6.985,0,0,0,4.633-3.277A53.941,53.941,0,0,0,177.742,435.9Zm-73.835,12.9c.195-.287.306-.42.385-.569a56.749,56.749,0,0,0,2.594-5.613c1.451-3.639,2.313-7.476,3.724-11.124a9.142,9.142,0,0,0,.652-3.9c-.062-1.092-.04-2.189-.045-3.284-.007-1.171,0-2.343,0-3.618-.323.247-.569.455-.835.638a7.927,7.927,0,0,1-3.731,1.789c-1,.077-1.094.62-1.225,1.367-.867,4.914-1.339,9.874-1.757,14.839A35.169,35.169,0,0,0,103.907,448.8Z" transform="translate(-43.882 -325.203)" fill="#020202"/><path d="M150.757,359.557a3.123,3.123,0,0,1,3.123,1.065,16.5,16.5,0,0,0,3.855,2.881c3.005,1.782,5.451,4.257,8.045,6.553a47.615,47.615,0,0,1,7.958,9.34c.433.647.993,1.21,1.616,1.957a2.365,2.365,0,0,0-.534-1.707,2.335,2.335,0,0,1-.5-2.209c1.651,1.425,2.555,3.361,3.575,5.219,3.671,6.679,5.544,13.945,7.005,21.35.245,1.247.642,2.463.954,3.7a2.884,2.884,0,0,1,.106.81,1.1,1.1,0,0,1-.924,1.186,1.126,1.126,0,0,1-1.245-.717,7.589,7.589,0,0,1-.527-2.39c-.323-2.5-.685-4.994-1.163-7.471a2.181,2.181,0,0,0-.259-.64c1.411,14.222,2.217,28.412-1.347,42.446l-.277.005c-.113-1.3-.24-2.59-.334-3.887-.252-3.492-.867-6.938-1.446-10.38a45.645,45.645,0,0,1-.286-12.347,50.793,50.793,0,0,0-2.732-21.805c-3-8.761-8.058-16.219-14.282-22.967-3.015-3.269-6.323-6.232-9.6-9.229C151.269,360.071,151.017,359.811,150.757,359.557Z" transform="translate(2.337 -330.349)" fill="#271b1c"/><path d="M170.737,434.5a33.789,33.789,0,0,1-4.368,4.425,87.458,87.458,0,0,1-29,16.949c-.944.333-1.907.606-2.859.915-.373.119-.675.057-.815-.336-.113-.321.084-.489.363-.628a59.485,59.485,0,0,0,8.868-5.891c4.049-3.012,7.8-6.415,12.083-9.118a41.678,41.678,0,0,1,10.8-4.939c1.282-.366,2.453-1.045,3.771-1.314A2.617,2.617,0,0,1,170.737,434.5Z" transform="translate(-9.282 -279.368)" fill="#271b1c"/><path d="M126.607,433.314c0-1.248-.025-2.495,0-3.741a2.768,2.768,0,0,1,4.245-2.469,2.4,2.4,0,0,1,1.216,2.3c.037,2.644.059,5.292,0,7.936-.04,1.771-.969,2.577-2.73,2.577a2.384,2.384,0,0,1-2.723-2.587C126.562,435.991,126.607,434.651,126.607,433.314Zm2.135.03c0,1.154-.005,2.308,0,3.462,0,.457-.032,1,.625.994.583-.01.58-.516.581-.947,0-2.338.005-4.677,0-7.015,0-.43,0-.917-.623-.9s-.573.524-.578.941C128.734,431.036,128.742,432.19,128.742,433.344Z" transform="translate(-14.094 -284.64)" fill="#020202"/><path d="M136.007,433.316c0,1.277.02,2.553-.005,3.83a2.76,2.76,0,0,1-4.233,2.485,2.393,2.393,0,0,1-1.226-2.291c-.044-2.644-.081-5.292.008-7.934a2.752,2.752,0,0,1,4.3-2.258A2.512,2.512,0,0,1,136,429.484C136.028,430.76,136.007,432.037,136.007,433.316Zm-2.137.066c0-1.186.008-2.37,0-3.555-.005-.427.005-.91-.628-.889-.571.02-.566.479-.569.863-.012,2.369-.008,4.739,0,7.109,0,.443.054.917.643.9.521-.018.564-.455.563-.872Z" transform="translate(-11.438 -284.642)" fill="#020202"/><path d="M134.531,433.2c0-1.855.027-3.711-.013-5.564-.015-.62.195-.811.779-.778a25.538,25.538,0,0,1,2.728.091,1.942,1.942,0,0,1,1.836,1.834,63.5,63.5,0,0,1,.008,8.831,2.074,2.074,0,0,1-2.026,1.986c-3.227.428-3.313.356-3.313-2.844Zm2.081.1c0,1.215.022,2.431-.01,3.645-.017.682.341.669.813.534s.43-.526.43-.89V430.94c0-.425,0-.85,0-1.275,0-.519-.307-.648-.771-.672-.558-.027-.459.343-.459.664Q136.61,431.478,136.612,433.3Z" transform="translate(-8.705 -284.533)" fill="#020202"/><path d="M108.731,436.776c0,.827-.018,1.525.007,2.222.017.465-.134.685-.623.632a3.415,3.415,0,0,0-.729,0c-.576.066-.806-.124-.8-.753q.04-5.614,0-11.23c-.005-.613.193-.818.783-.785.758.044,1.524-.013,2.278.059a2.112,2.112,0,0,1,2.234,2.263c.076,1.579.034,3.165.015,4.747a1.892,1.892,0,0,1-.6,1.482c-.524.425-.469.783-.168,1.3.415.706.743,1.462,1.129,2.184.259.484.3.689-.4.761a1.8,1.8,0,0,1-2.248-1.362A2.936,2.936,0,0,0,108.731,436.776Zm-.008-5.162c0,.667-.017,1.334.01,2,.01.252-.195.655.329.677a.615.615,0,0,0,.721-.632c.037-.573.049-1.147.049-1.722,0-.758,0-1.514-.034-2.27a.618.618,0,0,0-.684-.672c-.608,0-.368.44-.381.711C108.7,430.34,108.722,430.977,108.722,431.613Z" transform="translate(-27.697 -284.533)" fill="#020202"/><path d="M104.541,430.627a7.915,7.915,0,0,0,.008,1.094c.116.821-.173,1.065-1.023,1.067-.885,0-1.183-.247-1.089-1.121a18.568,18.568,0,0,0,.013-2.006c0-.4-.089-.742-.578-.761s-.622.291-.62.709c0,.731-.042,1.463.013,2.191a2.752,2.752,0,0,0,1.462,2.08,3.792,3.792,0,0,1,1.816,3.719,2.294,2.294,0,0,1-2.444,2.28c-1.811.049-2.758-.654-2.913-2.162-.012-.121-.018-.242-.024-.363-.037-1.206.608-1.651,1.794-1.265.445.144.274.484.287.753.017.375-.01.758.428.909a.537.537,0,0,0,.645-.2.877.877,0,0,0-.076-1.025,4.325,4.325,0,0,0-1.285-1.275,4.038,4.038,0,0,1-1.8-3.582c.024-.882-.029-1.767.024-2.646.091-1.5,1.1-2.306,2.742-2.261,1.613.044,2.538.857,2.611,2.317C104.561,429.59,104.539,430.109,104.541,430.627Z" transform="translate(-32.745 -284.603)" fill="#020202"/><path d="M114.172,433.224c0-1.856.017-3.713-.01-5.567-.008-.558.086-.83.739-.8,1.152.055,2.312.054,3.466.005,1.028-.045.7.679.732,1.186s.124,1.063-.739.978c-.657-.065-1.546-.237-1.939.1-.464.4-.131,1.31-.155,2-.029.82.022,1.645-.017,2.464-.024.511.128.737.659.667.208-.027.43.025.637-.008.884-.144,1.131.151,1.174,1.1.06,1.352-.786.946-1.456,1-.45.039-1.109-.262-1.016.667.037.375.114.554.521.536.546-.023,1.1.04,1.641-.015.9-.092.7.531.689,1.008s.254,1.151-.711,1.105c-1.183-.057-2.372-.039-3.558,0-.517.015-.675-.149-.667-.665C114.187,437.057,114.172,435.141,114.172,433.224Z" transform="translate(-22.544 -284.536)" fill="#020202"/><path d="M110.583,433.258c0-1.887.017-3.771-.01-5.658-.008-.548.151-.758.719-.741,1.184.035,2.37.029,3.556,0,.527-.012.667.2.68.7.039,1.441.059,1.44-1.371,1.44-1.485,0-1.485,0-1.485,1.45,0,1.033.035,2.07-.015,3.1-.027.586.18.771.726.694.18-.025.37.024.546-.008.951-.168,1.159.223,1.194,1.159.055,1.421-.9.848-1.514.921-.5.061-1.068-.113-.952.746.047.349.146.482.492.472.576-.015,1.156.018,1.732-.01.46-.025.687.113.64.608a5.907,5.907,0,0,0,0,.912c.03.514-.259.59-.689.583-1.186-.02-2.372-.042-3.556.007-.588.025-.711-.185-.7-.726C110.6,437.029,110.583,435.143,110.583,433.258Z" transform="translate(-24.984 -284.534)" fill="#020202"/><path d="M123.2,433.244c0-1.885.018-3.771-.012-5.655-.008-.551.141-.749.712-.731,1.184.04,2.37.03,3.556.005.519-.012.674.19.687.7.042,1.45.062,1.448-1.361,1.448-1.5,0-1.5,0-1.5,1.53,0,1.035.025,2.068-.01,3.1-.017.487.139.67.62.615.239-.029.491.029.727-.012.863-.146,1.141.158,1.109,1.06-.029.793-.165,1.109-1.038,1.058-1.4-.082-1.408-.02-1.408,1.425a4.039,4.039,0,0,0,.007.727c.178.963-.249,1.174-1.149,1.146-.729-.022-.995-.153-.966-.942C123.245,436.894,123.2,435.068,123.2,433.244Z" transform="translate(-16.412 -284.534)" fill="#020202"/><path d="M104.512,434.317c0-1.522-.029-3.046.015-4.566.017-.6-.16-.85-.759-.739-1.156.213-.84-.625-.909-1.233-.081-.716.163-.958.9-.922,1.245.06,2.5.045,3.743,0,.61-.018.835.193.749.788a2.186,2.186,0,0,0,0,.637c.1.635-.207.818-.769.722-.706-.119-.909.146-.9.872.045,2.953-.032,5.908.049,8.858.025.979-.462.877-1.094.905-.714.034-1.109-.035-1.05-.944C104.581,437.245,104.512,435.778,104.512,434.317Z" transform="translate(-30.239 -284.537)" fill="#020202"/><path d="M121.193,434.4c0,1.49-.024,2.98.012,4.469.015.58-.124.8-.748.773-1.6-.059-1.342.141-1.349-1.372-.012-2.827-.025-5.655.013-8.482.008-.645-.168-.889-.8-.779-1.105.188-.808-.615-.865-1.2-.064-.66.077-1,.863-.954,1.241.069,2.493.055,3.736.005.67-.029.87.23.788.84a1.59,1.59,0,0,0,0,.455c.1.643-.087,1-.815.857-.685-.136-.875.144-.85.831C121.232,431.363,121.193,432.883,121.193,434.4Z" transform="translate(-20.315 -284.538)" fill="#020202"/><path d="M174.322,434.944a53.945,53.945,0,0,1-4.714,8.562,6.985,6.985,0,0,1-4.633,3.277,7.09,7.09,0,0,1-6.7-2.686A16.944,16.944,0,0,1,155,437.155c-.262-.959-.454-1.939-.7-3-2.422,2.3-5.023,1.411-7.736.554-.464,1.24-.966,2.564-1.456,3.892a9.9,9.9,0,0,1-2.14,3.672c-3,3.029-7.711,2.515-10.373-1.141-1.947-2.674-2.362-5.744-2.231-8.932.066-1.542.235-3.079.284-4.638a60.4,60.4,0,0,0-2.538,6.085c-.951,2.528-1.7,5.127-2.574,7.681a3.609,3.609,0,0,1-5.712,1.987,13.7,13.7,0,0,1-1.277-1.166,31.729,31.729,0,0,1-1.732,5.663,41.1,41.1,0,0,1-5.607,9.349,9.978,9.978,0,0,1-7.822,3.866c-5.88.3-10.246-2.441-12.875-8.1a22.609,22.609,0,0,1-2.039-7.524c-.237-2.572-.617-5.132-.66-7.721a74.877,74.877,0,0,1,2.935-20.423,78.966,78.966,0,0,1,4.894-14.368,29.1,29.1,0,0,1,3.971-6.311c3.617-4.228,8.764-4.6,12.839-.845,3.424,3.155,5.755,9.379,3.237,14.716a12.285,12.285,0,0,1-5.792,5.969,2.494,2.494,0,0,1-2.839-.077,2.558,2.558,0,0,1-.768-2.661,15.608,15.608,0,0,1,.921-2.952,22.748,22.748,0,0,0,1.572-7.637,3.672,3.672,0,0,0-.022-.638c-.084-.517-.18-1.087-.778-1.221-.539-.121-.806.376-1.047.737a43.321,43.321,0,0,0-3.842,8.038,76.384,76.384,0,0,0-4.035,16.236,98.427,98.427,0,0,0-1.539,14.681,30.776,30.776,0,0,0,1.011,9.394,7.425,7.425,0,0,0,.627,1.509c.887,1.551,2.07,1.868,3.59.942a14.859,14.859,0,0,0,4.858-5.115,50.678,50.678,0,0,0,6.159-14.235c.344-1.384.887-2.553,2.606-2.53.482.007.277-.378.265-.6-.111-2.093-.282-4.185-.354-6.281a113.186,113.186,0,0,1,2.8-27.8,100.27,100.27,0,0,1,3.241-12.89,25.616,25.616,0,0,1,5.72-9.849,5.917,5.917,0,0,1,5.014-1.92,5.567,5.567,0,0,1,4.563,4.29,35.049,35.049,0,0,1,.123,16.623c-.934,4.462-1.863,8.937-3.8,13.091a124.221,124.221,0,0,1-6.416,12.359,11.566,11.566,0,0,0-1.747,6.563c.482-1.07.863-1.907,1.238-2.747,1.174-2.636,2.441-5.225,3.859-7.738a12.384,12.384,0,0,1,1.436-2.1,4.661,4.661,0,0,1,5.238-1.611,5.025,5.025,0,0,1,3.531,4.45,9.744,9.744,0,0,1-.284,3.795,36.925,36.925,0,0,0-1.164,10.205c.039,1.485.007,2.972.007,4.657a9.754,9.754,0,0,0,1.016-2.547,15.979,15.979,0,0,0,1.018-6.773,24.96,24.96,0,0,1,.035-3.832c.1-2.231.815-4.119,3.059-5.09a4,4,0,0,1-1.646-4.823,11.221,11.221,0,0,0,.413-6.1,4.985,4.985,0,0,1,0-1.907,3.815,3.815,0,0,1,4.951-3.237,5.785,5.785,0,0,1,3.172,2.021,3.483,3.483,0,0,1,.24,4.186,14.128,14.128,0,0,0-1.638,4.595,9,9,0,0,1-2.525,4.91,4.538,4.538,0,0,0,1.485.344c1.841.5,2.572,1.6,2.15,3.459a52.745,52.745,0,0,0-1.591,9.33c-.008.18,0,.359,0,.541.306.1.356-.176.472-.324a22.345,22.345,0,0,0,2.881-5.05,5.23,5.23,0,0,0,.457-2.122A185.02,185.02,0,0,1,154.459,400a87.046,87.046,0,0,1,6.179-25.489,17.682,17.682,0,0,1,.922-1.878c2.886-5,8.134-3.308,10.091.087a11.588,11.588,0,0,1,1.4,5.416,44.9,44.9,0,0,1-1.173,11.4,145.138,145.138,0,0,1-6.666,22.705,35.792,35.792,0,0,0-2.243,15.737,39.858,39.858,0,0,0,1.32,8.908c.2.675.294,1.687.971,1.8.556.092.89-.879,1.255-1.425a39.6,39.6,0,0,0,5.655-14.887,113.78,113.78,0,0,0,1.633-15.774,117.46,117.46,0,0,1,5.863-32.36,10.7,10.7,0,0,1,2.2-3.951,5.288,5.288,0,0,1,7.465-.576,10.228,10.228,0,0,1,3.647,7.015c.585,4.18-.307,8.173-1.587,12.1-2.061,6.323-4.1,12.658-6.313,18.927a44.476,44.476,0,0,0-2.372,17.58,98.277,98.277,0,0,0,2.019,14.343c.072.344.067.86.42.905.368.047.514-.465.66-.778a74.772,74.772,0,0,0,4.1-11.183c1.994-6.955,3.375-14.052,4.941-21.106.512-2.31,2.711-3.16,4.358-1.675a3.063,3.063,0,0,1,.927,2.921c-.459,2.695-.969,5.381-1.514,8.058a135.063,135.063,0,0,1-5.8,21.333,37.044,37.044,0,0,1-3.084,6.788c-1.178,1.858-2.671,3.36-4.972,3.652-2.889.366-5.077-.934-6.738-3.177a20.748,20.748,0,0,1-3.286-8.322C174.595,436.453,174.484,435.8,174.322,434.944Zm-50.247-1.63-.168-.029c.1-3.375.18-6.751.318-10.125a9.98,9.98,0,0,1,1.3-5.065c1.971-3.115,3.533-6.444,5.246-9.7a58.117,58.117,0,0,0,6.274-24.07,19.23,19.23,0,0,0-1.614-9.528,2.908,2.908,0,0,0-3.595-1.73A5.881,5.881,0,0,0,128.708,375a25.4,25.4,0,0,0-4.759,8.447,99.321,99.321,0,0,0-3.42,13.6,114.8,114.8,0,0,0-2.715,24.16,108.492,108.492,0,0,0,1.253,15.632,16.365,16.365,0,0,0,.665,3.85,2.583,2.583,0,0,0,2.382,1.683c1.11,0,1.574-.778,1.94-1.651a7.837,7.837,0,0,0,.252-.781,120.961,120.961,0,0,1,6.666-17.229c.86-1.792,1.781-3.558,2.673-5.337-.148,2.006-.454,3.944-.769,5.881a60.009,60.009,0,0,0-.88,11.17,9.687,9.687,0,0,0,1.843,5.641,5.6,5.6,0,0,0,4.255,2.51,5.093,5.093,0,0,0,5.018-3.405c.791-1.873,1.456-3.8,2.152-5.71.564-1.552.548-1.559,1.86-.546a4.488,4.488,0,0,0,6.977-1.46c.449-.847.8-1.747,1.228-2.7.2,1.708.326,3.345.585,4.961a20.275,20.275,0,0,0,3.044,8.6c1.347,1.935,3.136,3.145,5.629,2.847,1.794-.213,2.9-1.443,3.852-2.816a47.241,47.241,0,0,0,3.755-6.667,59.3,59.3,0,0,0,3.022-7.921,8.087,8.087,0,0,1,.232,2.049,38.8,38.8,0,0,0,2.016,11.086,11.7,11.7,0,0,0,2.69,4.5,4.863,4.863,0,0,0,7.682-.553,13.868,13.868,0,0,0,1.651-2.831,84.825,84.825,0,0,0,3.654-9.715,210,210,0,0,0,5.3-22.9,3.439,3.439,0,0,0,.1-1.624c-.173-.622-.47-1.025-1.184-1.035s-.811.46-.931,1c-.956,4.363-1.908,8.727-2.9,13.083a98.6,98.6,0,0,1-6.026,19.084,5.627,5.627,0,0,1-1.283,1.972,1.505,1.505,0,0,1-2.475-.344,5.248,5.248,0,0,1-.638-1.792,102.347,102.347,0,0,1-1.93-13.355,44.659,44.659,0,0,1,1.782-17.308c2.142-6.456,4.327-12.9,6.468-19.352,1.275-3.849,2.406-7.736,2.083-11.863a9.5,9.5,0,0,0-2.738-6.573,3.876,3.876,0,0,0-6.207.606,12.412,12.412,0,0,0-1.619,3.454,116.2,116.2,0,0,0-5.517,30.786,116.892,116.892,0,0,1-1.814,17.133,40.455,40.455,0,0,1-6.027,15.233,6.076,6.076,0,0,1-1.3,1.517,1.673,1.673,0,0,1-2.611-.358,6.752,6.752,0,0,1-1.026-2.322,49.368,49.368,0,0,1-1.191-9.3,34.5,34.5,0,0,1,1.982-15.588,149.493,149.493,0,0,0,6.434-21.262,47.016,47.016,0,0,0,1.535-13.641c-.141-2.1-.627-4.111-2.411-5.507a3.767,3.767,0,0,0-5.781.882,13.513,13.513,0,0,0-1.309,2.6,92.346,92.346,0,0,0-6.192,27.92c-.479,5.95-.622,11.91-.526,17.877a2.617,2.617,0,0,1-.082.811,22.209,22.209,0,0,1-3.933,7.35,5.076,5.076,0,0,1-1,.927,1.02,1.02,0,0,1-1.616-.371,2.675,2.675,0,0,1-.365-1.394,20.71,20.71,0,0,1,.294-4c.338-2.132.785-4.243,1.31-6.338.272-1.082.017-1.42-1.065-1.678a8.691,8.691,0,0,0-2.175-.2,2.917,2.917,0,0,0-3.1,2.617,25.976,25.976,0,0,0-.237,4.821,13.8,13.8,0,0,1,.007,3.721q-.564,2.157-1.24,4.285a10.4,10.4,0,0,1-2.216,4.247c-.309.319-.625.761-1.147.556-.464-.181-.45-.659-.494-1.094-.257-2.614.013-5.231-.057-7.847a31.992,31.992,0,0,1,.941-8.583,10.56,10.56,0,0,0,.425-4.6,3.449,3.449,0,0,0-2.6-2.873,3.176,3.176,0,0,0-3.382,1.262,12.1,12.1,0,0,0-1.485,2.293,92.736,92.736,0,0,0-4.217,8.991C126.518,427.252,125.3,430.286,124.075,433.315Zm-28.1,9c.1-3.835.5-7.647.909-11.459a96.991,96.991,0,0,1,3.835-19.289,34.277,34.277,0,0,1,3.9-9,12.468,12.468,0,0,1,2.854-3.177c1.188-.874,1.944-.662,2.607.674a5.622,5.622,0,0,1,.479,3.027,39.279,39.279,0,0,1-2.164,10.042c-.215.6-1,1.3-.269,1.882.653.517,1.317-.2,1.87-.549,7.931-5.038,5.633-14.378.6-18.264a6.527,6.527,0,0,0-8.69.3,19.834,19.834,0,0,0-4.309,6.063c-2.532,4.826-3.975,10.039-5.354,15.27a79.008,79.008,0,0,0-2.824,17.337,74.354,74.354,0,0,0,.667,10.19,19.281,19.281,0,0,0,2.259,7.544c2.3,4.128,5.487,6.825,10.587,6.511,3.1-.19,5.648-1.23,7.476-3.852,1.045-1.5,2.135-2.96,3.031-4.553a27,27,0,0,0,3.921-14.052,20.656,20.656,0,0,0-.457-3.708c-.076-.361-.168-.746-.637-.778-.509-.035-.657.349-.785.737-.039.116-.079.232-.108.349a52.4,52.4,0,0,1-5.572,13.518,19.037,19.037,0,0,1-5.7,6.674c-2.852,1.944-5.4,1.179-6.743-2.013-.116-.279-.2-.571-.3-.86A29.057,29.057,0,0,1,95.97,442.317Zm48.539-30.63a1.887,1.887,0,0,0,1.186,1.96c.879.185,1.325-.428,1.749-1.042a8.466,8.466,0,0,0,1.329-3.365,10.5,10.5,0,0,1,1.394-4.112c1.734-2.6-.274-4.151-2.243-4.566a2.191,2.191,0,0,0-2.829,2.32,7.589,7.589,0,0,0,.141,1.907,8.58,8.58,0,0,1-.077,3.971A12.057,12.057,0,0,0,144.509,411.688Z" transform="translate(-40.463 -324.249)" fill="#edebeb"/><path d="M95.535,427.085a35.169,35.169,0,0,1-.24-9.473c.418-4.964.89-9.925,1.757-14.839.131-.748.222-1.29,1.225-1.367a7.927,7.927,0,0,0,3.731-1.789c.265-.183.512-.391.835-.638,0,1.275-.005,2.448,0,3.619.005,1.1-.017,2.192.045,3.284a9.142,9.142,0,0,1-.652,3.9c-1.411,3.649-2.273,7.486-3.724,11.124a56.75,56.75,0,0,1-2.594,5.613C95.841,426.665,95.73,426.8,95.535,427.085Z" transform="translate(-35.511 -303.489)" fill="#fafafa"/><path d="M127.872,432.438c0-1.154-.008-2.308,0-3.462.005-.417-.044-.921.578-.941s.623.467.623.9c.008,2.338.005,4.677,0,7.015,0,.432,0,.937-.581.947-.657.01-.623-.538-.625-.994C127.867,434.746,127.872,433.592,127.872,432.438Z" transform="translate(-13.224 -283.734)" fill="#fafafa"/><path d="M132.994,432.476v3.553c0,.417-.042.853-.563.872-.59.022-.642-.452-.643-.9,0-2.37-.007-4.741.005-7.109,0-.385,0-.843.569-.863.633-.022.623.462.628.889C133,430.105,132.994,431.29,132.994,432.476Z" transform="translate(-10.562 -283.736)" fill="#fafafa"/><path d="M135.768,432.439q0-1.824,0-3.645c0-.321-.1-.69.459-.664.464.024.769.153.771.672,0,.425,0,.85,0,1.275v5.651c0,.365.04.756-.43.89s-.83.148-.813-.534C135.79,434.869,135.768,433.653,135.768,432.439Z" transform="translate(-7.861 -283.67)" fill="#edebeb"/><path d="M107.866,430.749c0-.637-.02-1.273.01-1.908.013-.271-.227-.712.381-.711a.618.618,0,0,1,.684.672c.034.756.035,1.512.034,2.27,0,.575-.012,1.149-.049,1.722a.615.615,0,0,1-.721.632c-.524-.022-.319-.425-.329-.677C107.85,432.083,107.866,431.416,107.866,430.749Z" transform="translate(-26.842 -283.669)" fill="#edebeb"/><path d="M111.93,432.681c1.228-3.029,2.443-6.063,3.687-9.083a92.741,92.741,0,0,1,4.217-8.991,12.1,12.1,0,0,1,1.485-2.293,3.175,3.175,0,0,1,3.382-1.262,3.449,3.449,0,0,1,2.6,2.873,10.561,10.561,0,0,1-.425,4.6,31.992,31.992,0,0,0-.941,8.583c.071,2.616-.2,5.233.057,7.847.044.435.03.912.494,1.094.522.2.838-.237,1.147-.556a10.4,10.4,0,0,0,2.216-4.247q.678-2.124,1.24-4.285a13.8,13.8,0,0,0-.007-3.721,25.974,25.974,0,0,1,.237-4.821,2.917,2.917,0,0,1,3.1-2.617,8.688,8.688,0,0,1,2.175.2c1.082.259,1.337.6,1.065,1.678-.526,2.095-.973,4.206-1.31,6.338a20.709,20.709,0,0,0-.294,4,2.675,2.675,0,0,0,.365,1.394,1.02,1.02,0,0,0,1.616.371,5.077,5.077,0,0,0,1-.927,22.209,22.209,0,0,0,3.933-7.35,2.617,2.617,0,0,0,.082-.811c-.1-5.967.047-11.927.526-17.877a92.346,92.346,0,0,1,6.192-27.92,13.513,13.513,0,0,1,1.309-2.6,3.767,3.767,0,0,1,5.781-.882c1.784,1.4,2.27,3.4,2.411,5.507a47.016,47.016,0,0,1-1.535,13.641A149.493,149.493,0,0,1,151.3,411.82a34.5,34.5,0,0,0-1.982,15.588,49.368,49.368,0,0,0,1.191,9.3,6.753,6.753,0,0,0,1.026,2.322,1.673,1.673,0,0,0,2.611.358,6.077,6.077,0,0,0,1.3-1.517,40.456,40.456,0,0,0,6.027-15.233,116.891,116.891,0,0,0,1.814-17.133,116.2,116.2,0,0,1,5.517-30.786,12.412,12.412,0,0,1,1.619-3.454,3.876,3.876,0,0,1,6.207-.606,9.5,9.5,0,0,1,2.738,6.573c.323,4.128-.808,8.015-2.083,11.863-2.14,6.456-4.326,12.9-6.468,19.352a44.659,44.659,0,0,0-1.782,17.308,102.35,102.35,0,0,0,1.93,13.355,5.248,5.248,0,0,0,.638,1.792,1.505,1.505,0,0,0,2.475.344,5.627,5.627,0,0,0,1.283-1.972,98.6,98.6,0,0,0,6.026-19.084c.991-4.356,1.944-8.72,2.9-13.083.119-.539.218-1.01.931-1s1.011.413,1.184,1.035a3.439,3.439,0,0,1-.1,1.624,210,210,0,0,1-5.3,22.9,84.825,84.825,0,0,1-3.654,9.715,13.867,13.867,0,0,1-1.651,2.831,4.863,4.863,0,0,1-7.682.553,11.7,11.7,0,0,1-2.69-4.5,38.8,38.8,0,0,1-2.016-11.086,8.087,8.087,0,0,0-.232-2.049,59.3,59.3,0,0,1-3.022,7.921,47.241,47.241,0,0,1-3.755,6.667c-.949,1.372-2.058,2.6-3.852,2.816-2.493.3-4.282-.912-5.629-2.847a20.274,20.274,0,0,1-3.044-8.6c-.259-1.616-.388-3.252-.585-4.961-.432.958-.779,1.858-1.228,2.7a4.488,4.488,0,0,1-6.977,1.46c-1.312-1.013-1.3-1.006-1.86.546-.7,1.912-1.361,3.837-2.152,5.71a5.093,5.093,0,0,1-5.018,3.405,5.6,5.6,0,0,1-4.255-2.51,9.687,9.687,0,0,1-1.843-5.641,60.011,60.011,0,0,1,.88-11.17c.316-1.937.622-3.876.769-5.881-.892,1.779-1.813,3.545-2.673,5.337a120.96,120.96,0,0,0-6.666,17.229,7.84,7.84,0,0,1-.252.781c-.366.874-.83,1.648-1.94,1.651a2.583,2.583,0,0,1-2.382-1.683,16.365,16.365,0,0,1-.665-3.85,108.493,108.493,0,0,1-1.253-15.632,114.8,114.8,0,0,1,2.715-24.16,99.319,99.319,0,0,1,3.42-13.6,25.4,25.4,0,0,1,4.759-8.447,5.881,5.881,0,0,1,3.131-1.932,2.908,2.908,0,0,1,3.595,1.73A19.23,19.23,0,0,1,124.9,383.7a58.117,58.117,0,0,1-6.274,24.07c-1.714,3.252-3.276,6.582-5.246,9.7a9.98,9.98,0,0,0-1.3,5.065c-.138,3.373-.215,6.75-.317,10.125Zm1.278-19.819c.625-1.267,1.28-2.52,1.87-3.8a74.944,74.944,0,0,0,6.889-25.818,22.167,22.167,0,0,0-.1-5.639c-.106-.583-.267-1.258-.887-1.364-.679-.118-.916.595-1.173,1.094a20.452,20.452,0,0,0-1.618,4.82c-1.85,8.077-3.8,16.135-4.712,24.4A26.806,26.806,0,0,0,113.209,412.862Zm36.329-3.719.233.013c.7-2.537,1.411-5.07,2.1-7.61a117.209,117.209,0,0,0,4.163-22.081,9.168,9.168,0,0,0-.516-4.751c-.155-.324-.329-.709-.749-.714s-.622.358-.795.675a12.529,12.529,0,0,0-1.1,2.789,78.557,78.557,0,0,0-1.987,12.68c-.368,3.963-.61,7.936-.892,11.907C149.829,404.414,149.689,406.779,149.538,409.143Zm20.085-5.957.2.008c.086-.252.173-.5.255-.756a136.3,136.3,0,0,0,5.245-23.152,14.6,14.6,0,0,0,.059-5.349c-.116-.5-.353-.956-.914-1-.544-.047-.758.4-.956.833a22.133,22.133,0,0,0-1.628,5.483c-.88,5-1.391,10.052-1.779,15.112C169.878,397.3,169.779,400.244,169.623,403.186Z" transform="translate(-28.318 -323.616)" fill="#ba1825"/><path d="M95.329,431.693a29.057,29.057,0,0,0,1.085,8.568c.091.289.18.581.3.86,1.341,3.192,3.891,3.956,6.743,2.013a19.037,19.037,0,0,0,5.7-6.674,52.4,52.4,0,0,0,5.572-13.518c.029-.118.069-.234.108-.349.128-.388.275-.773.785-.737.469.032.561.417.637.778a20.656,20.656,0,0,1,.457,3.708,27,27,0,0,1-3.921,14.052c-.9,1.593-1.986,3.056-3.031,4.553-1.828,2.622-4.374,3.662-7.476,3.852-5.1.314-8.282-2.384-10.587-6.511a19.282,19.282,0,0,1-2.259-7.544,74.354,74.354,0,0,1-.667-10.19,79.008,79.008,0,0,1,2.824-17.337c1.379-5.231,2.822-10.444,5.354-15.27a19.834,19.834,0,0,1,4.309-6.063,6.528,6.528,0,0,1,8.69-.3c5.031,3.886,7.329,13.226-.6,18.264-.553.351-1.216,1.067-1.87.549-.727-.578.054-1.28.269-1.882a39.279,39.279,0,0,0,2.164-10.042,5.622,5.622,0,0,0-.479-3.027c-.664-1.336-1.42-1.547-2.607-.674a12.468,12.468,0,0,0-2.854,3.177,34.276,34.276,0,0,0-3.9,9,96.991,96.991,0,0,0-3.835,19.289C95.831,424.046,95.424,427.858,95.329,431.693Z" transform="translate(-39.822 -313.625)" fill="#ba1825"/><path d="M121.56,398.718a12.057,12.057,0,0,1,.65-2.926,8.58,8.58,0,0,0,.077-3.971,7.588,7.588,0,0,1-.141-1.907,2.191,2.191,0,0,1,2.829-2.32c1.969.415,3.976,1.964,2.243,4.566a10.5,10.5,0,0,0-1.394,4.112,8.466,8.466,0,0,1-1.329,3.365c-.423.613-.87,1.226-1.749,1.042A1.887,1.887,0,0,1,121.56,398.718Z" transform="translate(-17.514 -311.279)" fill="#ba1825"/><path d="M110.2,410.09a26.806,26.806,0,0,1,.265-6.315c.909-8.26,2.863-16.318,4.712-24.4a20.453,20.453,0,0,1,1.618-4.82c.257-.5.494-1.211,1.173-1.094.62.106.781.781.887,1.364a22.167,22.167,0,0,1,.1,5.639,74.944,74.944,0,0,1-6.889,25.818C111.479,407.57,110.824,408.823,110.2,410.09Z" transform="translate(-25.309 -320.844)" fill="#edebeb"/><path d="M131.783,407.271c.151-2.364.291-4.729.46-7.091.282-3.971.524-7.944.892-11.907a78.555,78.555,0,0,1,1.987-12.68,12.528,12.528,0,0,1,1.1-2.789c.173-.317.383-.68.795-.675s.595.39.749.714a9.168,9.168,0,0,1,.516,4.751,117.209,117.209,0,0,1-4.163,22.081c-.69,2.54-1.4,5.073-2.1,7.61Z" transform="translate(-10.563 -321.744)" fill="#edebeb"/><path d="M143.739,401.748c.156-2.941.255-5.888.48-8.824.388-5.06.9-10.108,1.779-15.112a22.133,22.133,0,0,1,1.628-5.483c.2-.428.412-.88.956-.833.561.049.8.5.914,1a14.6,14.6,0,0,1-.059,5.349A136.3,136.3,0,0,1,144.193,401c-.082.252-.17.5-.255.756Z" transform="translate(-2.434 -322.178)" fill="#edebeb"/></svg>